<?xml version="1.0" standalone="no"?><!DOCTYPE svg PUBLIC "-//W3C//DTD SVG 1.1//EN" "http://www.w3.org/Graphics/SVG/1.1/DTD/svg11.dtd"><svg t="1551687871121" class="icon" style="" viewBox="0 0 1024 1024" version="1.1" xmlns="http://www.w3.org/2000/svg" p-id="1091" xmlns:xlink="http://www.w3.org/1999/xlink" width="64" height="64"><defs><style type="text/css"></style></defs><path d="M64 213.52h896v596.96H64z" fill="#E20012" opacity=".75" p-id="1092"></path><path d="M944 229.52v564.96H80V229.52h864m16-16H64v596.96h896V213.52z" fill="#E20012" p-id="1093"></path><path d="M213.4 269.37l19.91 65.54 65.36-0.26-52.75 39.45 19.49 60.95-52.01-37.93-52.01 37.93 19.5-60.95-52.76-39.45 65.36 0.26zM421.3 392.81l7 20.61 20.76-0.76-16.35 13.08 6.83 19.15-16.91-11.51-16.13 12.59 5.56-19.56-17.17-11.98 20.77-0.6zM409.48 306.51l14.91 15.86 18.57-9.29-9.45 18.67 14.14 14.6-20.16-3.46-9.46 18.14-3.04-20.11-20.59-3.79 18.65-9.15zM374.47 246.03l-2.3 21.64 19.16 8.03-20.32 5-1.86 20.25-10.51-17.55-19.92 4.65 13.26-15.41-10.55-18.08 19.09 8.17zM374.36 454.63l-1.89 21.68 19.3 7.66-20.22 5.39-1.47 20.28-10.85-17.34-19.82 5.03 12.96-15.67-10.89-17.88 19.25 7.82z" fill="#F6E202" p-id="1094"></path></svg>